<?xml version="1.0" encoding="UTF-8" standalone="no"?>
<svg
   xmlns:dc="http://purl.org/dc/elements/1.1/"
   xmlns:cc="http://creativecommons.org/ns#"
   xmlns:rdf="http://www.w3.org/1999/02/22-rdf-syntax-ns#"
   xmlns:svg="http://www.w3.org/2000/svg"
   xmlns="http://www.w3.org/2000/svg"
   xmlns:sodipodi="http://sodipodi.sourceforge.net/DTD/sodipodi-0.dtd"
   xmlns:inkscape="http://www.inkscape.org/namespaces/inkscape"
   version="1.1"
   viewBox="0.0 0.0 960.0 720.0"
   fill="none"
   stroke="none"
   stroke-linecap="square"
   stroke-miterlimit="10"
   id="svg90"
   sodipodi:docname="for videos.svg"
   inkscape:version="0.92.3 (2405546, 2018-03-11)">
  <metadata
     id="metadata96">
    <rdf:RDF>
      <cc:Work
         rdf:about="">
        <dc:format>image/svg+xml</dc:format>
        <dc:type
           rdf:resource="http://purl.org/dc/dcmitype/StillImage" />
        <dc:title></dc:title>
      </cc:Work>
    </rdf:RDF>
  </metadata>
  <defs
     id="defs94" />
  <sodipodi:namedview
     pagecolor="#ffffff"
     bordercolor="#666666"
     borderopacity="1"
     objecttolerance="10"
     gridtolerance="10"
     guidetolerance="10"
     inkscape:pageopacity="0"
     inkscape:pageshadow="2"
     inkscape:window-width="1920"
     inkscape:window-height="1057"
     id="namedview92"
     showgrid="false"
     inkscape:pagecheckerboard="true"
     inkscape:zoom="1.2333333"
     inkscape:cx="480"
     inkscape:cy="360"
     inkscape:window-x="-8"
     inkscape:window-y="-8"
     inkscape:window-maximized="1"
     inkscape:current-layer="svg90" />
  <clipPath
     id="p.0">
    <path
       d="m0 0l960.0 0l0 720.0l-960.0 0l0 -720.0z"
       clip-rule="nonzero"
       id="path73" />
  </clipPath>
  <path
     style="fill:#000000;fill-opacity:0;fill-rule:evenodd"
     inkscape:connector-curvature="0"
     id="path76"
     d="M 0,0 H 960 V 720 H 0 Z" />
  <path
     style="fill:#000000;fill-opacity:0;fill-rule:evenodd"
     inkscape:connector-curvature="0"
     id="path78"
     d="M 123.96326,292.07874 H 526.41993 V 427.92127 H 123.96326 Z" />
  <path
     style="fill:#ffffff;fill-rule:nonzero"
     inkscape:connector-curvature="0"
     id="path80"
     d="m 135.65076,449.4275 q -4.21875,0 -8,-1.09375 -3.78125,-1.07813 -6.20313,-3.25 l 3.20313,-6.92188 q 3.95312,3.45313 10.48437,3.45313 5.375,0 8.25,-3.20313 2.89063,-3.1875 2.89063,-9.46875 v -72.3125 h 9.09375 v 72.3125 q 0,9.48438 -5.125,14.98438 -5.125,5.5 -14.59375,5.5 z m 14.90625,-107.51563 q -2.8125,0 -4.73438,-1.92187 -1.92187,-1.92188 -1.92187,-4.60938 0,-2.5625 1.92187,-4.46875 1.92188,-1.92187 4.73438,-1.92187 2.82812,0 4.73437,1.85937 1.92188,1.84375 1.92188,4.40625 0,2.8125 -1.92188,4.73438 -1.90625,1.92187 -4.73437,1.92187 z m 53.69701,14.20313 q 13.1875,0 20.21875,6.59375 7.04687,6.59375 7.04687,19.51562 v 41.73438 h -8.70312 v -10.5 q -3.0625,5.25 -9.01563,8.20312 -5.95312,2.9375 -14.15625,2.9375 -11.25,0 -17.90625,-5.375 -6.65625,-5.375 -6.65625,-14.20312 0,-8.57813 6.20313,-13.82813 6.20312,-5.25 19.78125,-5.25 h 21.375 v -4.09375 q 0,-8.70312 -4.875,-13.25 -4.85938,-4.54687 -14.20313,-4.54687 -6.40625,0 -12.29687,2.10937 -5.875,2.10938 -10.10938,5.82813 l -4.09375,-6.78125 q 5.125,-4.35938 12.28125,-6.71875 7.17188,-2.375 15.10938,-2.375 z m -3.1875,61.3125 q 7.67187,0 13.17187,-3.51563 5.51563,-3.51562 8.20313,-10.17187 v -11.01563 h -21.125 q -17.28125,0 -17.28125,12.03125 0,5.89063 4.46875,9.28125 4.48437,3.39063 12.5625,3.39063 z m 83.06688,7.17187 q -9.98438,0 -17.85938,-4.34375 -7.875,-4.35937 -12.35936,-12.23437 -4.46875,-7.875 -4.46875,-17.71875 0,-9.85938 4.46875,-17.67188 4.48436,-7.8125 12.35936,-12.15625 7.875,-4.35937 17.85938,-4.35937 8.70312,0 15.54687,3.39062 6.84375,3.39063 10.8125,9.92188 l -6.78125,4.60937 q -3.32812,-4.98437 -8.45312,-7.48437 -5.10938,-2.5 -11.125,-2.5 -7.29688,0 -13.125,3.26562 -5.82813,3.26563 -9.09375,9.28125 -3.25,6.01563 -3.25,13.70313 0,7.79687 3.25,13.75 3.26562,5.95312 9.09375,9.21875 5.82812,3.26562 13.125,3.26562 6.01562,0 11.125,-2.42187 5.125,-2.4375 8.45312,-7.4375 l 6.78125,4.60937 q -3.96875,6.53125 -10.875,9.92188 -6.90625,3.39062 -15.48437,3.39062 z m 69.1109,-34.4375 -15.85938,14.59375 v 19.20313 h -9.09375 V 328.99 h 9.09375 v 64.375 l 40.1875,-36.73438 h 11.26563 l -28.79688,27.51563 31.48438,39.8125 h -11.14063 z" />
  <path
     style="fill:#ffffff;fill-rule:evenodd"
     inkscape:connector-curvature="0"
     id="path82"
     d="M 424.48294,165.46457 796.70344,360 424.54594,554.53546 Z" />
  <path
     style="fill:#000000;fill-opacity:0;fill-rule:evenodd"
     inkscape:connector-curvature="0"
     id="path84"
     d="m 412.63254,318.3937 h 358.29922 v 83.21259 H 412.63254 Z" />
</svg>
