<!DOCTYPE svg PUBLIC "-//W3C//DTD SVG 20010904//EN" "http://www.w3.org/TR/2001/REC-SVG-20010904/DTD/svg10.dtd">
<svg version="1.0" xmlns="http://www.w3.org/2000/svg" width="1600px" height="900px" viewBox="0 0 16000 9000" preserveAspectRatio="xMidYMid meet">
<g id="layer101" fill="#ffffff" stroke="none">
 <path d="M10935 8769 c-44 -5 -129 -13 -190 -18 -255 -22 -748 -138 -968 -227 -32 -13 -63 -24 -69 -24 -10 0 -32 -9 -193 -77 -147 -63 -507 -248 -513 -264 -2 -5 -10 -9 -17 -9 -11 0 -96 -51 -130 -78 -5 -4 -38 -25 -72 -46 -34 -21 -70 -47 -79 -57 -9 -10 -21 -19 -26 -19 -11 0 -171 -121 -181 -137 -4 -7 -13 -13 -19 -13 -6 0 -21 -10 -33 -22 -12 -13 -48 -45 -81 -73 -112 -96 -190 -168 -277 -259 -92 -95 -310 -351 -362 -425 -16 -23 -40 -55 -52 -71 -13 -15 -23 -33 -23 -39 0 -6 -3 -11 -7 -11 -5 0 -21 -21 -38 -48 -16 -26 -35 -53 -42 -60 -7 -7 -13 -20 -13 -28 0 -8 -4 -14 -8 -14 -5 0 -22 -23 -38 -51 -16 -28 -41 -72 -56 -97 -24 -42 -54 -96 -85 -157 -6 -11 -18 -36 -28 -55 -10 -19 -22 -42 -26 -50 -5 -8 -24 -51 -44 -95 -20 -44 -43 -92 -51 -107 -8 -14 -14 -31 -14 -38 0 -6 -9 -30 -19 -53 -24 -53 -59 -148 -76 -207 -8 -25 -23 -72 -34 -105 -79 -233 -155 -623 -172 -880 -11 -180 -11 -530 0 -710 17 -257 93 -647 172 -880 11 -33 26 -80 34 -105 17 -59 52 -154 76 -207 10 -23 19 -47 19 -53 0 -7 6 -24 14 -38 8 -15 31 -63 51 -107 20 -44 43 -93 52 -110 9 -16 20 -38 25 -47 20 -43 75 -147 106 -200 15 -25 40 -69 56 -97 16 -28 33 -51 38 -51 4 0 8 -6 8 -14 0 -8 6 -21 13 -28 7 -7 26 -34 42 -60 17 -27 33 -48 38 -48 4 0 7 -5 7 -11 0 -6 10 -24 23 -39 12 -16 36 -48 52 -71 52 -74 270 -330 362 -425 87 -91 165 -163 277 -259 33 -27 69 -60 81 -73 12 -12 27 -22 33 -22 6 0 15 -6 19 -13 10 -16 170 -137 181 -137 5 0 17 -9 26 -19 9 -10 45 -36 79 -57 34 -21 67 -42 72 -46 34 -27 119 -78 130 -78 7 0 15 -4 17 -9 6 -16 366 -201 513 -264 161 -68 183 -77 193 -77 6 0 37 -11 69 -24 221 -89 714 -205 968 -227 61 -5 154 -14 209 -19 126 -13 543 -13 666 0 52 6 142 15 200 20 261 23 720 130 990 232 217 81 299 117 485 210 177 89 243 124 265 142 8 7 32 21 53 31 20 11 37 23 37 27 0 5 6 8 13 8 6 0 45 23 85 50 41 28 76 50 79 50 3 0 20 12 38 28 18 15 50 38 70 52 46 31 54 38 198 156 64 53 117 100 117 105 0 5 5 9 11 9 10 0 133 114 198 184 20 22 60 63 89 91 28 29 52 57 52 63 0 7 4 12 8 12 11 0 192 216 192 229 0 6 6 14 13 18 7 4 35 40 62 78 27 39 55 76 62 83 7 7 13 20 13 28 0 8 4 14 8 14 5 0 18 17 30 38 11 21 30 48 41 61 12 13 21 30 21 36 0 7 6 18 14 24 8 7 24 31 36 54 11 23 34 65 50 92 46 79 200 394 200 408 0 3 11 30 24 59 35 80 76 187 76 200 0 7 11 42 24 78 80 219 161 597 188 880 17 174 17 666 0 840 -27 283 -108 661 -188 880 -13 36 -24 71 -24 78 0 13 -41 120 -76 200 -13 29 -24 56 -24 59 0 14 -154 329 -200 408 -16 28 -39 69 -50 92 -12 23 -28 47 -36 54 -8 6 -14 17 -14 24 0 6 -9 23 -21 36 -11 13 -30 40 -41 61 -12 21 -25 38 -30 38 -4 0 -8 6 -8 14 0 8 -6 21 -13 28 -7 7 -35 45 -62 83 -27 39 -55 74 -62 78 -7 4 -13 12 -13 18 0 13 -181 229 -192 229 -4 0 -8 5 -8 12 0 6 -24 34 -52 63 -29 28 -69 69 -89 91 -65 70 -188 184 -198 184 -6 0 -11 4 -11 9 0 5 -53 52 -117 105 -144 118 -152 125 -198 156 -20 14 -52 37 -70 53 -18 15 -35 27 -38 27 -3 0 -38 22 -79 50 -40 27 -79 50 -85 50 -7 0 -13 3 -13 8 0 4 -17 16 -37 27 -21 10 -45 24 -53 31 -22 18 -88 53 -265 142 -186 93 -268 129 -485 210 -270 102 -729 209 -990 232 -58 5 -148 14 -200 20 -112 11 -571 11 -685 -1z m-1599 -3619 c61 -8 195 -59 225 -86 8 -7 19 -14 23 -14 9 0 116 -113 116 -123 0 -5 9 -20 19 -33 25 -32 59 -146 70 -235 21 -166 -37 -333 -154 -437 -56 -50 -62 -53 -149 -92 -87 -39 -215 -50 -403 -36 l-113 8 0 -24 c0 -13 7 -78 15 -143 8 -66 15 -147 15 -180 0 -33 3 -84 6 -112 l7 -53 323 0 324 0 0 -95 0 -95 -408 0 -408 0 -22 233 c-13 127 -22 252 -22 277 0 25 -5 102 -12 172 -11 119 -10 129 7 148 10 11 23 20 28 20 6 0 19 7 29 16 16 16 26 16 135 0 188 -26 266 -21 396 26 83 30 158 108 183 191 26 84 24 191 -5 284 -63 201 -296 279 -607 202 -49 -11 -116 -34 -149 -49 l-60 -29 -3 86 c-2 64 1 90 11 101 8 7 51 26 95 42 126 44 300 55 488 30z m1379 4 c80 -9 169 -52 233 -113 28 -28 52 -55 52 -60 0 -5 7 -14 15 -21 36 -30 86 -159 120 -310 39 -174 36 -609 -6 -770 -11 -41 -24 -91 -28 -110 -10 -42 -57 -144 -85 -185 -53 -77 -179 -185 -217 -185 -8 0 -34 -7 -59 -16 -99 -34 -314 -8 -384 47 -13 10 -28 19 -33 19 -15 0 -123 116 -123 132 0 5 -11 24 -25 42 -14 18 -25 40 -25 49 0 8 -9 37 -21 64 -11 26 -32 113 -46 193 -20 119 -24 179 -25 330 0 286 37 471 133 660 32 62 143 170 209 202 54 27 178 49 230 42 14 -2 52 -6 85 -10z m2525 2 c102 -12 188 -35 240 -67 8 -5 31 -17 50 -28 67 -36 220 -204 220 -240 0 -6 9 -25 19 -43 31 -53 71 -185 87 -288 45 -287 32 -563 -32 -725 -13 -33 -24 -64 -24 -69 0 -15 -86 -139 -121 -175 -38 -38 -119 -92 -164 -108 -142 -53 -317 -46 -450 18 -55 26 -165 118 -165 138 0 4 -9 16 -20 26 -11 10 -22 27 -26 39 -3 11 -16 41 -27 66 -32 69 -48 234 -35 350 14 119 63 232 129 295 5 6 20 20 31 33 12 12 25 22 30 22 5 0 25 10 46 23 98 61 271 77 402 36 69 -21 81 -29 152 -101 43 -43 82 -78 88 -78 11 0 10 10 -15 205 -14 108 -18 127 -49 212 -19 51 -83 153 -96 153 -6 0 -10 7 -10 15 0 9 -11 21 -25 27 -14 6 -25 15 -25 19 0 4 -34 24 -76 45 -59 28 -95 39 -162 46 -80 8 -208 4 -274 -8 l-28 -6 0 80 0 80 78 7 c42 3 84 8 92 9 27 6 43 5 160 -8z m-1362 -64 c13 -31 35 -79 48 -107 13 -27 24 -54 24 -60 0 -5 11 -32 24 -60 13 -27 33 -72 44 -100 11 -27 35 -84 52 -125 18 -41 43 -102 57 -135 14 -33 36 -83 49 -112 13 -28 24 -56 24 -62 0 -5 11 -31 25 -57 14 -26 25 -52 25 -58 0 -7 9 -29 20 -51 11 -21 25 -54 31 -74 7 -20 20 -49 30 -66 11 -16 19 -37 19 -45 0 -8 11 -37 24 -65 13 -27 36 -78 50 -112 14 -35 37 -89 50 -120 13 -32 31 -75 40 -96 10 -23 16 -66 16 -112 l0 -75 -565 0 -565 0 0 95 0 95 456 0 456 0 -7 27 c-3 15 -17 51 -31 80 -13 29 -35 77 -49 107 -14 30 -25 58 -25 63 0 4 -12 33 -26 63 -65 138 -74 157 -74 165 0 8 -22 58 -76 170 -13 28 -24 55 -24 60 0 5 -11 32 -24 60 -14 27 -39 84 -56 125 -43 101 -62 145 -94 210 -14 30 -26 59 -26 63 0 8 -9 29 -74 169 -14 31 -26 61 -26 66 0 6 -11 30 -25 53 -43 76 -40 79 78 79 l102 0 23 -58z"/>
 <path d="M10540 4994 c-80 -29 -153 -85 -177 -136 -72 -152 -95 -287 -96 -583 -2 -260 17 -406 70 -537 20 -49 40 -88 45 -88 5 0 13 -11 18 -25 5 -14 16 -25 24 -25 8 0 19 -6 23 -14 20 -34 116 -52 220 -41 56 6 71 12 116 49 29 23 57 51 62 62 6 10 18 30 26 44 18 28 50 132 70 225 8 41 12 156 12 355 -1 285 -2 299 -27 395 -28 108 -54 175 -68 175 -4 0 -8 6 -8 13 0 23 -64 83 -115 107 -49 24 -159 37 -195 24z"/>
 <path d="M13205 4313 c-57 -15 -155 -74 -155 -94 0 -6 -9 -23 -21 -38 -25 -34 -48 -134 -49 -211 0 -92 22 -212 47 -252 13 -21 23 -41 23 -46 0 -11 53 -61 82 -78 67 -38 93 -44 183 -44 82 0 98 3 145 28 51 27 140 107 140 125 0 5 8 21 19 35 26 38 61 180 61 250 0 158 -105 284 -269 324 -91 21 -127 22 -206 1z"/>
 <path d="M770 5106 c-85 -14 -201 -57 -243 -90 l-28 -23 25 -63 c14 -35 26 -69 26 -77 0 -20 30 -15 77 11 66 38 196 69 293 70 245 2 366 -113 420 -403 6 -32 10 -314 10 -712 l0 -659 106 0 106 0 -5 688 c-5 736 -2 690 -55 894 -22 85 -73 170 -144 239 -39 38 -76 69 -84 69 -7 0 -28 9 -47 20 -73 43 -297 61 -457 36z"/>
 <path d="M2190 5105 c-67 -12 -190 -68 -190 -85 0 -6 -8 -14 -18 -18 -19 -7 -82 -74 -82 -86 0 -4 -11 -23 -23 -44 -15 -22 -29 -69 -37 -120 -18 -111 -3 -193 51 -278 34 -52 105 -124 124 -124 3 0 18 -9 33 -20 15 -11 68 -33 119 -50 88 -29 100 -30 266 -30 153 0 187 3 273 25 54 14 104 25 111 25 19 0 17 -160 -3 -229 -25 -84 -34 -100 -94 -160 -76 -77 -152 -106 -275 -106 -68 0 -108 6 -165 24 -67 22 -217 93 -230 110 -3 4 -17 12 -32 18 -31 14 -34 12 -73 -66 -14 -29 -23 -57 -18 -61 31 -30 219 -122 308 -151 84 -27 306 -39 383 -19 58 14 140 49 197 83 38 22 125 121 152 172 56 108 63 165 63 567 0 211 4 377 10 392 5 14 20 28 35 32 25 6 25 8 25 100 l0 94 -71 0 c-112 0 -160 -41 -167 -142 -5 -64 -14 -70 -52 -33 -50 49 -83 75 -96 75 -8 0 -14 3 -14 8 0 8 -31 25 -115 62 -50 23 -216 50 -290 48 -22 0 -69 -6 -105 -13z m345 -172 c88 -33 102 -39 145 -70 52 -36 87 -72 124 -127 24 -37 26 -46 26 -161 l0 -123 -52 -21 c-69 -28 -212 -51 -318 -51 -224 0 -381 79 -423 213 -21 66 -21 87 1 154 32 97 127 182 227 203 55 12 220 2 270 -17z"/>
 <path d="M3895 5105 c-80 -12 -186 -51 -237 -86 -14 -11 -30 -19 -35 -19 -5 0 -16 -8 -25 -17 -9 -10 -36 -37 -60 -59 -75 -73 -83 -84 -142 -195 -107 -203 -108 -481 -4 -696 22 -46 44 -83 49 -83 5 0 9 -6 9 -12 0 -15 113 -138 126 -138 5 0 20 -12 33 -25 13 -14 28 -25 33 -25 5 0 22 -9 38 -20 15 -11 65 -32 111 -47 77 -26 97 -28 234 -28 139 0 156 2 229 28 44 16 92 37 107 48 15 10 31 19 36 19 31 0 203 197 203 232 0 16 -133 68 -172 68 -17 0 -29 -7 -33 -19 -9 -28 -101 -117 -145 -140 -21 -11 -47 -24 -57 -29 -94 -48 -287 -39 -393 19 -87 48 -200 157 -200 193 0 8 -4 18 -10 21 -14 9 -35 61 -55 135 -52 194 18 447 159 573 98 87 186 126 302 134 67 5 93 2 150 -17 122 -40 219 -111 258 -187 9 -18 22 -33 28 -33 6 0 49 12 95 28 83 27 84 27 78 56 -3 17 -13 41 -23 54 -9 14 -21 32 -27 40 -16 23 -119 122 -128 122 -5 0 -23 11 -41 25 -18 14 -38 25 -43 25 -6 0 -32 10 -59 22 -53 23 -192 48 -264 46 -25 0 -81 -6 -125 -13z"/>
 <path d="M4890 4100 l0 -990 100 0 100 0 0 657 0 656 35 -36 c20 -21 38 -37 41 -37 3 0 84 -79 180 -175 96 -96 176 -175 179 -175 2 0 76 -72 164 -160 l160 -160 116 0 c63 0 115 2 115 5 0 3 -127 133 -283 289 l-283 283 23 34 c13 19 31 43 41 54 9 11 21 27 27 36 33 54 81 119 87 119 5 0 8 6 8 13 0 8 11 24 25 37 14 13 25 28 25 33 0 9 22 40 73 101 15 19 27 37 27 41 0 4 12 22 28 41 50 61 72 92 72 101 0 5 11 20 25 33 14 13 25 29 25 37 0 7 4 13 8 13 4 0 21 20 36 45 16 25 35 50 42 56 8 6 14 18 14 25 0 11 -23 14 -107 14 l-108 0 -25 -37 c-14 -20 -29 -41 -35 -47 -5 -6 -30 -40 -54 -76 -24 -36 -49 -70 -55 -75 -6 -6 -15 -18 -21 -27 -34 -55 -120 -174 -132 -181 -7 -4 -13 -12 -13 -17 0 -9 -44 -72 -86 -123 -8 -9 -14 -21 -14 -25 0 -5 -11 -19 -25 -32 -14 -13 -25 -29 -25 -35 0 -6 -5 -16 -11 -22 -9 -9 -43 17 -138 104 -69 63 -134 124 -143 135 -16 18 -18 45 -18 239 l0 219 -100 0 -100 0 0 -990z"/>
 </g>

</svg>