<svg version="1.1" width="246" height="198" viewBox="-1 -1 246 198" xmlns="http://www.w3.org/2000/svg" xmlns:xlink="http://www.w3.org/1999/xlink">
  <!-- Exported by Scratch - http://scratch.mit.edu/ -->
  <g id="ID0.563027813564986">
    <path id="ID0.5514144850894809" fill="#d0ff00" d="M 13.660 66.590 C 76.600 44.990 139.490 23.260 202.420 1.640 C 198.290 23.440 193.960 45.210 189.760 67 C 187.080 67 184.400 67 181.720 67 C 181.720 68.430 181.720 69.870 181.720 71.300 C 184.120 71.300 186.520 71.300 188.920 71.300 C 180.720 113.490 172.540 155.680 164.310 197.860 C 134.250 171.900 104.350 145.760 74.350 119.730 C 70.600 116.520 66.990 113.150 63.060 110.160 C 67.470 111.660 72.180 110.940 76.520 109.600 C 76.580 108.130 76.630 106.650 76.690 105.180 C 72.450 106.390 67.560 108.070 63.470 105.550 C 59.630 103.130 58.830 98.170 58.750 93.990 C 58.870 89.820 59.630 84.800 63.570 82.500 C 67.320 80.300 71.790 81.620 75.710 82.550 C 76.120 81.180 76.530 79.800 76.930 78.430 C 70.760 76.420 62.920 75.970 58.160 81.160 C 52.910 87.330 52.840 96.650 55.880 103.850 C 52.550 100.580 48.870 97.690 45.440 94.530 C 45.180 89.530 46.590 83.380 42.580 79.500 C 38.120 76.020 31.870 76.630 26.800 78.330 C 22.390 74.450 17.690 70.880 13.660 66.590 Z " transform="matrix(1, 0, 0, 1, 0, -1)"/>
    <path id="ID0.6257197353988886" fill="#e300ff" d="M 84.280 64.020 C 85.800 64.010 87.320 64 88.840 64 C 88.760 74.060 89.030 84.130 88.650 94.180 C 92.990 88.370 98.400 83.500 103.160 78.040 C 105.070 78.010 106.990 78 108.900 77.990 C 104.850 82.260 100.670 86.420 96.710 90.770 C 95.440 91.630 96.870 92.790 97.330 93.610 C 101.480 99.080 105.640 104.540 109.800 110.010 C 107.880 110 105.970 110 104.050 109.990 C 100.240 105 96.470 99.970 92.700 94.950 C 91.430 95.980 90.070 96.950 88.990 98.190 C 88.600 102.110 88.950 106.070 88.850 110.010 C 87.320 110 85.800 109.990 84.280 109.980 C 84.300 94.660 84.300 79.340 84.280 64.020 Z " transform="matrix(1, 0, 0, 1, 0, -1)"/>
    <path id="ID0.3180668191052973" fill="#e300ff" d="M 157.440 66.720 C 162.510 64.870 168.840 66.430 171.930 71 C 175.550 76.220 176 82.820 176.200 88.960 C 175.850 94.980 175.600 101.640 171.700 106.590 C 166.860 112.930 155.690 112.400 151.620 105.450 C 147.190 97.820 147.350 88.410 148.510 79.910 C 149.290 74.550 151.770 68.420 157.440 66.720 Z " transform="matrix(1, 0, 0, 1, 0, -1)"/>
    <path id="ID0.49024102417752147" fill="#e300ff" d="M 6.570 67 C 8.190 67 9.810 67 11.430 67 C 11.450 80.660 11.390 94.320 11.470 107.980 C 11.520 111.380 11.210 115.110 8.840 117.770 C 6.690 120.400 3.110 120.730 0 121.290 L 0 117.280 C 1.690 116.520 3.500 115.990 5.050 114.960 C 6.770 113.080 6.530 110.350 6.610 107.990 C 6.530 94.330 6.580 80.670 6.570 67 Z " transform="matrix(1, 0, 0, 1, 0, -1)"/>
    <path id="ID0.011795539874583483" fill="#e300ff" d="M 116.920 67.120 C 124.040 66.870 131.160 67.050 138.280 67 C 138.280 68.430 138.280 69.870 138.280 71.300 C 132.610 71.290 126.930 71.330 121.260 71.270 C 120.620 75.690 120.450 80.150 120.070 84.590 C 125.500 83.730 131.600 83.350 136.380 86.600 C 143.860 91.680 142.620 104.700 134.730 108.820 C 128.470 112.120 120.800 111.460 114.410 108.860 C 114.390 107.320 114.370 105.780 114.340 104.250 C 119.690 106.600 126.080 108.180 131.640 105.630 C 137.790 102.980 138.300 92.760 132.450 89.530 C 127.960 87.270 122.740 88.030 117.990 88.940 C 117.160 88.410 116.320 87.880 115.500 87.350 C 115.960 80.600 116.730 73.880 116.920 67.120 Z " transform="matrix(1, 0, 0, 1, 0, -1)"/>
    <path id="ID0.6633522645570338" fill="#e300ff" d="M 181.720 67 C 184.400 67 187.080 67 189.760 67 C 196.650 67.010 203.540 66.980 210.430 67.020 C 210.600 71.530 208.080 75.390 206.380 79.380 C 201.850 89.550 197.210 99.670 192.770 109.880 C 190.980 109.940 189.190 110 187.400 110.050 C 193.300 97.130 199.400 84.300 205.170 71.320 C 199.750 71.280 194.340 71.310 188.920 71.300 C 186.520 71.300 184.120 71.300 181.720 71.300 C 181.720 69.870 181.720 68.430 181.720 67 Z " transform="matrix(1, 0, 0, 1, 0, -1)"/>
    <path id="ID0.43568797735497355" fill="#e300ff" d="M 217.970 74.100 C 221.420 66.430 232.660 64.710 238.760 70.170 C 242.890 73.880 244.160 79.720 244.440 85.030 C 244.110 92.120 243.730 100.020 238.720 105.580 C 234.040 110.960 226.200 111.710 219.580 110.530 C 219.560 109.530 219.530 107.510 219.510 106.500 C 224.400 107.310 230.060 107.580 234.090 104.140 C 238.530 100.370 239.140 94.130 239.740 88.720 C 235.450 94.230 227.050 95.790 221.250 91.800 C 215.780 87.880 215.480 79.810 217.970 74.100 Z " transform="matrix(1, 0, 0, 1, 0, -1)"/>
    <path id="ID0.12911430979147553" fill="#d0ff00" d="M 159.320 70.540 C 163.110 69.060 167.750 71.120 169.220 74.910 C 171.530 80.630 171.470 86.970 171.170 93.030 C 170.710 97.190 170.310 101.900 167.170 105.020 C 163.440 108.470 156.710 107.040 154.780 102.310 C 152.240 95.900 152.380 88.760 152.960 81.990 C 153.480 77.660 154.570 72.080 159.320 70.540 Z " transform="matrix(1, 0, 0, 1, 0, -1)"/>
    <path id="ID0.628438038751483" fill="#ffffff" d="M 227.380 71.380 C 235 68.940 241.650 77.930 239.070 84.840 C 236.190 91.110 225.330 92.430 222.040 85.900 C 220.030 80.780 221.200 72.920 227.380 71.380 Z " transform="matrix(1, 0, 0, 1, 0, -1)"/>
    <path id="ID0.9971521650440991" fill="#e300ff" d="M 26.800 78.330 C 31.870 76.630 38.120 76.020 42.580 79.500 C 46.590 83.380 45.180 89.530 45.440 94.530 C 45.410 99.700 45.440 104.870 45.430 110.040 C 44.570 110 42.870 109.940 42.010 109.900 C 41.610 108.400 41.200 106.900 40.800 105.390 C 37.430 110.470 30.570 112.510 24.990 110.030 C 18.490 107.600 17.950 97.150 23.970 93.850 C 29.120 90.870 35.310 91.290 41.030 90.840 C 40.630 88.150 41.040 85.020 39.130 82.820 C 36.830 80.380 33.170 80.900 30.190 81.380 C 28.390 81.890 26.650 82.620 24.900 83.280 C 24.380 82.070 23.860 80.870 23.340 79.660 C 24.480 79.190 25.640 78.750 26.800 78.330 Z " transform="matrix(1, 0, 0, 1, 0, -1)"/>
    <path id="ID0.012407845817506313" fill="#e300ff" d="M 58.160 81.160 C 62.920 75.970 70.760 76.420 76.930 78.430 C 76.530 79.800 76.120 81.180 75.710 82.550 C 71.790 81.620 67.320 80.300 63.570 82.500 C 59.630 84.800 58.870 89.820 58.750 93.990 C 58.830 98.170 59.630 103.130 63.470 105.550 C 67.560 108.070 72.450 106.390 76.690 105.180 C 76.630 106.650 76.580 108.130 76.520 109.600 C 72.180 110.940 67.470 111.660 63.060 110.160 C 59.940 109.140 57.380 106.740 55.880 103.850 C 52.840 96.650 52.910 87.330 58.160 81.160 Z " transform="matrix(1, 0, 0, 1, 0, -1)"/>
    <path id="ID0.8733963053673506" fill="#d0ff00" d="M 30.190 81.380 C 33.170 80.900 36.830 80.380 39.130 82.820 C 41.040 85.020 40.630 88.150 41.030 90.840 C 37.480 87.620 33.840 84.490 30.190 81.380 Z " transform="matrix(1, 0, 0, 1, 0, -1)"/>
    <path id="ID0.21236731717363" fill="#ffffff" d="M 28.140 96.060 C 31.704 93.739 36.590 94.740 40.820 94.350 C 40.610 97.300 41.406 101.107 39.220 103.160 C 36.604 105.748 31.855 105.723 29 104 C 26.620 102.483 25.478 97.594 28.140 96.060 Z " transform="matrix(1, 0, 0, 1, 0, -1)"/>
  </g>
</svg>